<?xml version="1.0" encoding="utf-8" standalone="yes"?> <svg width="1026" height="1026" viewBox="-1 -1 27 27" xmlns="http://www.w3.org/2000/svg" xmlns:xlink="http://www.w3.org/1999/xlink" shape-rendering="crispEdges" id="qr code"><rect id="qr background" fill-opacity="1" fill="rgb(255, 255, 255)" x="-1" y="-1" width="27" height="27"></rect><path fill-opacity="1" fill="rgb(0, 0, 0)" id="qr dark pixels" fill-rule="evenodd" d="M 9 0 L 11 0 L 11 1 L 9 1 z M 12 0 L 16 0 L 16 1 L 17 1 L 17 3 L 16 3 L 16 2 L 15 2 L 15 4 L 14 4 L 14 2 L 12 2 L 12 5 L 11 5 L 11 4 L 9 4 L 9 3 L 8 3 L 8 1 L 9 1 L 9 2 L 11 2 L 11 1 L 12 1 z M 8 4 L 9 4 L 9 5 L 10 5 L 10 6 L 9 6 L 9 7 L 10 7 L 10 8 L 8 8 z M 13 4 L 14 4 L 14 5 L 13 5 z M 15 4 L 17 4 L 17 10 L 18 10 L 18 8 L 21 8 L 21 9 L 19 9 L 19 12 L 20 12 L 20 14 L 21 14 L 21 16 L 20 16 L 20 15 L 19 15 L 19 16 L 18 16 L 18 13 L 15 13 L 15 12 L 17 12 L 17 11 L 16 11 L 16 9 L 15 9 L 15 8 L 14 8 L 14 6 L 15 6 L 15 7 L 16 7 L 16 6 L 15 6 z M 12 5 L 13 5 L 13 7 L 12 7 z M 10 6 L 11 6 L 11 7 L 10 7 z M 0 8 L 2 8 L 2 9 L 0 9 z M 3 8 L 4 8 L 4 9 L 5 9 L 5 10 L 7 10 L 7 11 L 6 11 L 6 12 L 5 12 L 5 11 L 4 11 L 4 10 L 3 10 L 3 11 L 4 11 L 4 12 L 3 12 L 3 13 L 2 13 L 2 12 L 1 12 L 1 11 L 2 11 L 2 9 L 3 9 z M 6 8 L 8 8 L 8 9 L 6 9 z M 10 8 L 11 8 L 11 11 L 9 11 L 9 13 L 11 13 L 11 14 L 8 14 L 8 15 L 6 15 L 6 14 L 7 14 L 7 13 L 6 13 L 6 12 L 7 12 L 7 11 L 8 11 L 8 9 L 9 9 L 9 10 L 10 10 z M 12 8 L 14 8 L 14 9 L 13 9 L 13 11 L 12 11 z M 22 8 L 24 8 L 24 9 L 22 9 z M 24 9 L 25 9 L 25 11 L 23 11 L 23 10 L 24 10 z M 0 10 L 1 10 L 1 11 L 0 11 z M 11 11 L 12 11 L 12 12 L 11 12 z M 13 11 L 15 11 L 15 12 L 14 12 L 14 13 L 13 13 L 13 14 L 12 14 L 12 12 L 13 12 z M 20 11 L 21 11 L 21 12 L 20 12 z M 4 12 L 5 12 L 5 13 L 6 13 L 6 14 L 5 14 L 5 17 L 3 17 L 3 16 L 4 16 L 4 15 L 3 15 L 3 16 L 2 16 L 2 17 L 0 17 L 0 16 L 1 16 L 1 15 L 2 15 L 2 14 L 3 14 L 3 13 L 4 13 z M 21 12 L 22 12 L 22 13 L 23 13 L 23 15 L 22 15 L 22 14 L 21 14 z M 23 12 L 25 12 L 25 15 L 24 15 L 24 13 L 23 13 z M 1 13 L 2 13 L 2 14 L 1 14 z M 0 14 L 1 14 L 1 15 L 0 15 z M 11 14 L 12 14 L 12 16 L 11 16 z M 13 14 L 14 14 L 14 15 L 16 15 L 16 19 L 15 19 L 15 18 L 14 18 L 14 17 L 15 17 L 15 16 L 13 16 z M 9 15 L 10 15 L 10 16 L 9 16 z M 23 15 L 24 15 L 24 16 L 23 16 z M 6 16 L 8 16 L 8 17 L 6 17 z M 10 16 L 11 16 L 11 17 L 10 17 z M 12 16 L 13 16 L 13 18 L 14 18 L 14 19 L 13 19 L 13 20 L 14 20 L 14 19 L 15 19 L 15 21 L 13 21 L 13 22 L 10 22 L 10 23 L 9 23 L 9 22 L 8 22 L 8 21 L 11 21 L 11 20 L 10 20 L 10 18 L 11 18 L 11 19 L 12 19 L 12 18 L 11 18 L 11 17 L 12 17 z M 21 16 L 23 16 L 23 17 L 22 17 L 22 19 L 23 19 L 23 20 L 22 20 L 22 21 L 23 21 L 23 23 L 22 23 L 22 22 L 21 22 L 21 23 L 19 23 L 19 21 L 21 21 z M 8 17 L 9 17 L 9 19 L 8 19 z M 24 17 L 25 17 L 25 19 L 23 19 L 23 18 L 24 18 z M 16 21 L 18 21 L 18 22 L 16 22 z M 13 22 L 14 22 L 14 24 L 16 24 L 16 23 L 19 23 L 19 24 L 17 24 L 17 25 L 11 25 L 11 23 L 13 23 z M 15 22 L 16 22 L 16 23 L 15 23 z M 24 22 L 25 22 L 25 23 L 24 23 z M 8 23 L 9 23 L 9 24 L 10 24 L 10 25 L 8 25 z M 21 23 L 22 23 L 22 24 L 21 24 z M 19 24 L 20 24 L 20 25 L 19 25 z M 23 24 L 25 24 L 25 25 L 23 25 z"></path><path id="qr squares" d="M0,0h7h0v0v7v0h0h-7h0v0v-7v0h0zM1,1h5h0v0v5v0h0h-5h0v0v-5v0h0zM2,2h3h0v0v3v0h0h-3h0v0v-3v0h0z M18,0h7h0v0v7v0h0h-7h0v0v-7v0h0zM19,1h5h0v0v5v0h0h-5h0v0v-5v0h0zM20,2h3h0v0v3v0h0h-3h0v0v-3v0h0z M0,18h7h0v0v7v0h0h-7h0v0v-7v0h0zM1,19h5h0v0v5v0h0h-5h0v0v-5v0h0zM2,20h3h0v0v3v0h0h-3h0v0v-3v0h0zM16,16h5h0v0v5v0h0h-5h0v0v-5v0h0zM17,17h3h0v0v3v0h0h-3h0v0v-3v0h0zM18,18h1h0v0v1v0h0h-1h0v0v-1v0h0z" fill-rule="evenodd" fill-opacity="1" fill="rgb(0, 0, 0)"></path></svg>